<?xml version="1.0" encoding="UTF-8" standalone="no"?>
<!-- Created with Inkscape (http://www.inkscape.org/) -->

<svg
   xmlns:dc="http://purl.org/dc/elements/1.1/"
   xmlns:cc="http://creativecommons.org/ns#"
   xmlns:rdf="http://www.w3.org/1999/02/22-rdf-syntax-ns#"
   xmlns:svg="http://www.w3.org/2000/svg"
   xmlns="http://www.w3.org/2000/svg"
   xmlns:sodipodi="http://sodipodi.sourceforge.net/DTD/sodipodi-0.dtd"
   xmlns:inkscape="http://www.inkscape.org/namespaces/inkscape"
   width="819.2901"
   height="702.92468"
   id="svg2690"
   sodipodi:version="0.32"
   inkscape:version="0.48.4 r9939"
   version="1.0"
   sodipodi:docname="yafaray-logo.svg"
   inkscape:output_extension="org.inkscape.output.svg.inkscape">
  <defs
     id="defs2692">
    <inkscape:perspective
       sodipodi:type="inkscape:persp3d"
       inkscape:vp_x="0 : 526.18109 : 1"
       inkscape:vp_y="0 : 1000 : 0"
       inkscape:vp_z="744.09448 : 526.18109 : 1"
       inkscape:persp3d-origin="372.04724 : 350.78739 : 1"
       id="perspective2698" />
    <clipPath
       clipPathUnits="userSpaceOnUse"
       id="clipPath3085">
      <rect
         style="fill:#005bff;fill-opacity:0.70980392"
         id="rect3087"
         width="888.57147"
         height="677.14288"
         x="1444.2411"
         y="868.901"
         ry="41.056698" />
    </clipPath>
  </defs>
  <sodipodi:namedview
     id="base"
     pagecolor="#ffffff"
     bordercolor="#666666"
     borderopacity="1.0"
     gridtolerance="10000"
     guidetolerance="10"
     objecttolerance="10"
     inkscape:pageopacity="0.0"
     inkscape:pageshadow="2"
     inkscape:zoom="0.98994952"
     inkscape:cx="373.05335"
     inkscape:cy="355.61367"
     inkscape:document-units="px"
     inkscape:current-layer="layer1"
     showgrid="false"
     inkscape:window-width="1680"
     inkscape:window-height="991"
     inkscape:window-x="0"
     inkscape:window-y="27"
     showguides="true"
     inkscape:guide-bbox="true"
     fit-margin-top="0"
     fit-margin-left="0"
     fit-margin-right="0"
     fit-margin-bottom="0"
     inkscape:window-maximized="1" />
  <metadata
     id="metadata2695">
    <rdf:RDF>
      <cc:Work
         rdf:about="">
        <dc:format>image/svg+xml</dc:format>
        <dc:type
           rdf:resource="http://purl.org/dc/dcmitype/StillImage" />
        <dc:title></dc:title>
      </cc:Work>
    </rdf:RDF>
  </metadata>
  <g
     inkscape:label="Layer 1"
     inkscape:groupmode="layer"
     id="layer1"
     transform="translate(-880.49174,-188.52755)">
    <g
       transform="translate(-563.74935,-712.24943)"
       style="display:inline"
       id="g4345"
       inkscape:export-filename="/home/luis/logo_yaf.png"
       inkscape:export-xdpi="90"
       inkscape:export-ydpi="90"
       clip-path="url(#clipPath3085)">
      <path
         sodipodi:nodetypes="csccscc"
         id="path3800"
         d="m 2135.0312,1063.375 c 50.9777,37.5625 86.4375,106.8299 86.4376,184.2812 0,78.0172 -35.9556,147.5073 -87.5626,184.7188 l 33.8438,0 c 57.893,-40.7436 95.7812,-108.4099 95.7812,-184.9375 1e-4,-75.9852 -37.3621,-143.2297 -94.5624,-184.0625 l -33.9376,0 z"
         style="fill:#000000;fill-opacity:1;fill-rule:nonzero;stroke:none;stroke-width:1.72306716;marker:none;visibility:visible;display:block"
         inkscape:connector-curvature="0" />
      <path
         id="path3802"
         d="m 2047.6875,1062.5938 c -76.1351,1.2563 -140.7813,82.0767 -140.7813,185.0624 0,103.7969 65.6805,184.5313 142.5938,184.5313 76.9133,0 142.5937,-80.7344 142.5938,-184.5313 0,-103.7968 -65.6805,-185.0626 -142.5938,-185.0624 -0.6009,0 -1.213,-0.01 -1.8125,0 z m -61.8437,80.0937 c 0.1128,0 0.2307,0 0.3437,0 28.9381,0 52.4062,46.9349 52.4063,104.75 -1e-4,57.8151 -23.4682,104.75 -52.4063,104.75 -28.9381,0 -52.4375,-46.9349 -52.4375,-104.75 0,-57.5893 23.3114,-104.3854 52.0938,-104.75 z"
         style="fill:#b40000;fill-opacity:1;fill-rule:nonzero;stroke:none;stroke-width:1.72306716;marker:none;visibility:visible;display:block"
         inkscape:connector-curvature="0" />
      <path
         sodipodi:nodetypes="cscccccccccccscccccccccccccccsscc"
         id="path3806"
         d="m 1954.1875,970.65625 c -26.7698,0.23634 -53.4562,3.04291 -80.125,7.625 -50.3778,8.6557 -100.1931,23.61525 -150.125,39.87495 -86.5431,32.1447 -171.3932,70.0986 -255.75,110.0626 l 82.875,51.5624 c 88.3843,-39.755 181.5957,-78.3683 272.8125,-109.7812 l 0.2188,-0.094 0.2187,-0.062 c 52.278,-15.3855 105.4593,-29.506 159.4063,-37.0938 52.3554,-7.3635 105.4917,-8.4468 159,1.5312 -0.7469,-1.1618 -1.5147,-2.159 -2.2188,-3.4687 l -6.1562,-11.4687 c -34.8363,-18.2154 -71.2099,-32.4541 -108.8126,-42.7813 -23.1948,-4.18298 -46.3295,-6.00375 -69.4062,-5.90625 -0.6426,0.003 -1.295,-0.006 -1.9375,0 z M 1194.2188,1260.375 c -52.4932,25.0727 -105.5173,48.7446 -159.0313,70.75 -57.0039,23.4407 -114.57674,44.9579 -172.71875,64.2188 -58.14234,19.2603 -116.83547,36.2682 -176.09375,50.625 -59.25837,14.3574 -118.90165,26.0534 -179.25,34.7812 -60.15174,9.7247 -120.18777,14.5125 -179.96875,14.9062 -59.78069,0.3945 -119.31866,-3.6062 -178.46875,-11.4062 -113.636338,-14.9854 -225.843826,-44.1596 -335.875,-83.25 27.3819,12.9864 57.05538,26.3917 88.625,39.5625 112.633533,40.6672 227.43454,70.6053 343.40625,85.5313 57.98573,7.4635 116.25429,11.1663 174.71875,10.5937 58.46425,-0.5728 117.11617,-5.4163 175.84375,-15.0937 l 0.0937,-0.031 0.0937,0 c 119.83103,-17.2533 237.74441,-46.3261 353.6875,-84.1875 57.97185,-18.9308 115.46305,-40.0517 172.43755,-63 54.4538,-21.9331 108.4427,-45.5429 161.9687,-70.4688 l -89.4687,-43.5312 z"
         style="fill:#b40000;fill-opacity:1;fill-rule:nonzero;stroke:none"
         inkscape:connector-curvature="0" />
      <path
         sodipodi:nodetypes="cccccccccccccccccccscccccccccccc"
         id="path3808"
         d="m 403.125,950 c -52.94936,0.20808 -105.73155,3.92425 -158.28125,10.6875 -115.97175,14.9262 -230.772662,44.8643 -343.40625,85.5313 -31.54483,13.1604 -61.19809,26.5543 -88.5625,39.5312 110.011211,-39.079 222.197617,-68.2365 335.8125,-83.2188 59.15022,-7.80045 118.68818,-11.8005 178.46875,-11.4062 59.78097,0.3934 119.62947,5.1499 179.78125,14.875 60.34833,8.7279 120.17921,20.4556 179.4375,34.8125 59.25813,14.3574 117.95136,31.3332 176.09375,50.5937 58.142,19.261 115.71488,40.8095 172.71875,64.25 57.0038,23.4412 113.3742,48.7569 169.2187,75.6563 43.22,20.4005 132.2595,64.3285 133.2188,65.7813 l 79.7188,-52.4376 c -42.0498,-19.5702 -84.0459,-39.142 -126.125,-58.2812 -0.032,-0.021 -0.063,-0.042 -0.094,-0.062 -55.9585,-26.2063 -112.4315,-50.9581 -169.4062,-73.9063 -56.9747,-22.9479 -114.4658,-44.0697 -172.43755,-63 -115.94314,-37.861 -233.85641,-66.93356 -353.6875,-84.18745 -0.0626,-0.01 -0.1251,-0.0203 -0.1875,-0.0312 -58.72769,-9.677 -117.37956,-14.5527 -175.84375,-15.125 -5.48103,-0.0537 -10.95998,-0.084 -16.4375,-0.0625 z m 1147.5938,354.4062 -82.5,54.1563 c 84.3278,39.9534 168.7821,77.7982 255.3124,109.9375 49.9319,16.2601 100.1534,31.3442 150.5313,40 50.2132,8.6271 100.5514,10.8496 151.2187,1.75 39.7443,-10.8958 72.1122,-22.1312 108.75,-41.8438 l 8.4688,-12.4687 c 0.7016,-1.3053 -106.426,5.4578 -158.7812,-1.9063 -53.9469,-7.5871 -107.1284,-21.7089 -159.4063,-37.0937 -0.147,-0.049 -0.2929,-0.1008 -0.4375,-0.1563 -91.2168,-31.4128 -272.1083,-110.8244 -273.1562,-112.375 z"
         style="fill:#000000;fill-opacity:1;fill-rule:nonzero;stroke:none"
         inkscape:connector-curvature="0" />
      <path
         style="fill:none;stroke:none"
         d="m 403.125,950 c -52.94936,0.20808 -105.73155,3.92425 -158.28125,10.6875 -115.97175,14.9262 -230.772662,44.8643 -343.40625,85.5313 -31.54483,13.1604 -61.19809,26.5543 -88.5625,39.5312 110.011211,-39.079 222.197617,-68.2365 335.8125,-83.2188 59.15022,-7.80045 118.68818,-11.8005 178.46875,-11.4062 59.78097,0.3934 119.62947,5.1499 179.78125,14.875 60.34833,8.7279 120.17921,20.4556 179.4375,34.8125 59.25813,14.3574 117.95136,31.3332 176.09375,50.5937 58.142,19.261 115.71488,40.8095 172.71875,64.25 57.0038,23.4412 113.3742,48.7569 169.2187,75.6563 43.22,20.4005 86.2265,41.3366 129.2188,62.2813 1.6785,0.8175 3.0407,2.0472 4,3.5 l 79.7188,-52.4376 c -42.0498,-19.5702 -84.0459,-39.142 -126.125,-58.2812 -0.032,-0.021 -0.063,-0.042 -0.094,-0.062 -55.9585,-26.2063 -112.4315,-50.9581 -169.4062,-73.9063 -56.9747,-22.9479 -114.4658,-44.0697 -172.43755,-63 -115.94314,-37.861 -233.85641,-66.93356 -353.6875,-84.18745 -0.0626,-0.01 -0.1251,-0.0203 -0.1875,-0.0312 -58.72769,-9.677 -117.37956,-14.5527 -175.84375,-15.125 -5.48103,-0.0537 -10.95998,-0.084 -16.4375,-0.0625 z m 1147.5938,354.4062 -82.5,54.1563 c 84.3278,39.9534 168.7821,77.7982 255.3124,109.9375 49.9319,16.2601 100.1534,31.3442 150.5313,40 50.2132,8.6271 100.5514,10.8496 151.2187,1.75 39.7443,-10.8958 78.1122,-26.1312 114.75,-45.8438 -1.0993,-2.7541 -0.9278,-5.8528 0.4688,-8.4687 0.7016,-1.3053 1.4746,-2.279 2.2188,-3.4375 -53.5076,9.9779 -106.6448,8.8953 -159,1.5312 -53.9469,-7.5871 -107.1284,-21.7089 -159.4063,-37.0937 -0.147,-0.049 -0.2929,-0.1008 -0.4375,-0.1563 -91.2168,-31.4128 -180.4283,-69.0263 -268.8125,-108.7812 -1.8141,-0.783 -3.2958,-2.0432 -4.3437,-3.5938 z"
         id="path4287"
         inkscape:connector-curvature="0" />
    </g>
    <g
       style="display:inline"
       id="g2538"
       transform="translate(-532.50641,-846.65223)">
      <path
         sodipodi:type="arc"
         style="fill:#b40000;fill-opacity:1;fill-rule:nonzero;stroke:none;stroke-width:1.72306716;marker:none;visibility:visible;display:block"
         id="path2531"
         sodipodi:cx="206.25"
         sodipodi:cy="507.36218"
         sodipodi:rx="5"
         sodipodi:ry="5"
         d="m 211.25,507.36218 c 0,2.76143 -2.23858,5 -5,5 -2.76142,0 -5,-2.23857 -5,-5 0,-2.76142 2.23858,-5 5,-5 2.76142,0 5,2.23858 5,5 z"
         transform="matrix(4.127489,0,0,4.127489,664.63365,-978.71573)" />
      <path
         transform="matrix(4.127489,0,0,4.127489,1322.7605,-978.71573)"
         d="m 211.25,507.36218 c 0,2.76143 -2.23858,5 -5,5 -2.76142,0 -5,-2.23857 -5,-5 0,-2.76142 2.23858,-5 5,-5 2.76142,0 5,2.23858 5,5 z"
         sodipodi:ry="5"
         sodipodi:rx="5"
         sodipodi:cy="507.36218"
         sodipodi:cx="206.25"
         id="path2533"
         style="fill:#b40000;fill-opacity:1;fill-rule:nonzero;stroke:none;stroke-width:1.72306716;marker:none;visibility:visible;display:block"
         sodipodi:type="arc" />
      <path
         sodipodi:type="arc"
         style="fill:#b40000;fill-opacity:1;fill-rule:nonzero;stroke:none;stroke-width:1.72306716;marker:none;visibility:visible;display:block"
         id="path2535"
         sodipodi:cx="206.25"
         sodipodi:cy="507.36218"
         sodipodi:rx="5"
         sodipodi:ry="5"
         d="m 211.25,507.36218 c 0,2.76143 -2.23858,5 -5,5 -2.76142,0 -5,-2.23857 -5,-5 0,-2.76142 2.23858,-5 5,-5 2.76142,0 5,2.23858 5,5 z"
         transform="matrix(4.127489,0,0,4.127489,999.01909,-1038.3146)" />
      <path
         transform="matrix(4.127489,0,0,4.127489,1305.2746,-417.50165)"
         d="m 211.25,507.36218 c 0,2.76143 -2.23858,5 -5,5 -2.76142,0 -5,-2.23857 -5,-5 0,-2.76142 2.23858,-5 5,-5 2.76142,0 5,2.23858 5,5 z"
         sodipodi:ry="5"
         sodipodi:rx="5"
         sodipodi:cy="507.36218"
         sodipodi:cx="206.25"
         id="path2537"
         style="fill:#b40000;fill-opacity:1;fill-rule:nonzero;stroke:none;stroke-width:1.72306716;marker:none;visibility:visible;display:block"
         sodipodi:type="arc" />
      <path
         sodipodi:type="arc"
         style="fill:#b40000;fill-opacity:1;fill-rule:nonzero;stroke:none;stroke-width:1.72306716;marker:none;visibility:visible;display:block"
         id="path2539"
         sodipodi:cx="206.25"
         sodipodi:cy="507.36218"
         sodipodi:rx="5"
         sodipodi:ry="5"
         d="m 211.25,507.36218 c 0,2.76143 -2.23858,5 -5,5 -2.76142,0 -5,-2.23857 -5,-5 0,-2.76142 2.23858,-5 5,-5 2.76142,0 5,2.23858 5,5 z"
         transform="matrix(4.127489,0,0,4.127489,997.73136,-376.66482)" />
      <path
         transform="matrix(4.127489,0,0,4.127489,666.98443,-428.93022)"
         d="m 211.25,507.36218 c 0,2.76143 -2.23858,5 -5,5 -2.76142,0 -5,-2.23857 -5,-5 0,-2.76142 2.23858,-5 5,-5 2.76142,0 5,2.23858 5,5 z"
         sodipodi:ry="5"
         sodipodi:rx="5"
         sodipodi:cy="507.36218"
         sodipodi:cx="206.25"
         id="path2541"
         style="fill:#b40000;fill-opacity:1;fill-rule:nonzero;stroke:none;stroke-width:1.72306716;marker:none;visibility:visible;display:block"
         sodipodi:type="arc" />
    </g>
  </g>
</svg>
